<svg xmlns="http://www.w3.org/2000/svg" xmlns:xlink="http://www.w3.org/1999/xlink" width="426" height="103" viewBox="0 0 426 103" fill="none"><g opacity="1" transform="translate(-0.0000065242846574165014 0.00030517578125)  rotate(0 212.97072575216785 51.358395288425584)"><path id="形状" fill-rule="evenodd" style="fill:#FFFFFF" transform="translate(370.1999598051169 0)  rotate(180 27.870745849609385 39.664017545329756)" opacity="1" d="M55.74 39.5197C55.74 75.0397 55.74 75.6797 55.06 76.9997C54.69 77.7497 53.97 78.5597 53.43 78.8397C52.11 79.5397 49.83 79.4797 48.27 78.6997C47.7645 78.4438 47.3664 78.2473 47.0528 77.9589C45.8713 76.8722 45.89 74.4805 45.89 62.6897C45.89 52.9395 45.8337 49.4558 45.5483 48.3234C39.381 54.9096 29.4248 57.9419 20.8526 55.773C13.9426 53.993 8.57258 50.203 4.82258 44.483C4.59134 44.1267 4.36871 43.767 4.15465 43.4042C0.640173 37.803 -0.776356 30.6873 0.42 22.9697C2.15 11.7997 11.05 2.57972 22.05 0.479721C23.95 0.0997207 27.93 -0.000279345 38.52 -0.000279345C51.8 -0.000279345 52.58 0.0297207 53.6 0.679721C53.9226 0.872972 54.1967 0.989496 54.4296 1.16173C55.8357 2.2016 55.74 5.27222 55.74 39.5197Z M41.7796 40.5993C44.6996 36.9793 46.4696 31.1393 46.0596 26.4593C45.1396 16.0793 37.7096 8.81934 28.0596 8.81934C23.0696 8.81934 19.0296 10.4793 15.4596 14.0393C8.83964 20.6593 7.81964 30.9693 12.9496 38.8793C15.5296 42.8093 19.2296 45.4193 23.9896 46.6393C30.2696 48.2393 37.6396 45.7593 41.7796 40.5993Z " /><path id="形状" fill-rule="evenodd" style="fill:#FFFFFF" transform="translate(0 23.384511782397333)  rotate(180 27.850499490228582 27.942194238295524)" opacity="1" d="M49.48 46.31C54.58 40.44 56.79 30.88 55.19 21.82C53.26 10.86 44.87 2.49 33.79 0.38C30.36 -0.26 22.86 -0.06 19.84 0.75C11.35 3.06 4.72 9.17 1.7 17.44C-0.91 24.57 -0.47 34.37 2.72 40.68C5.74 46.72 9.65 50.52 15.73 53.4C20.45 55.64 27.85 56.49 33.59 55.44C39.67 54.32 45.51 50.96 49.48 46.31Z M42.4546 39.5893C49.2146 29.6593 45.9846 15.4093 35.9046 10.6293C26.6946 6.24927 16.0346 9.77927 11.7546 18.5993C10.0246 22.1293 9.24459 26.7793 9.78459 30.2993C11.0746 38.9493 16.0046 44.8193 23.4346 46.5793C30.7746 48.3193 38.4446 45.4593 42.4546 39.5893Z " /><path id="形状" fill-rule="evenodd" style="fill:#FFFFFF" transform="translate(71.69003744484144 23.392901294576117)  rotate(180 27.882745361328134 39.661186045547936)" opacity="1" d="M48.0498 0.662C45.9198 1.952 45.9198 1.952 45.9198 16.672C45.9198 29.802 45.8098 31.532 45.1698 31.532C45.1698 31.532 43.9398 30.712 42.8598 29.732C40.2098 27.362 37.6998 25.902 34.1298 24.652C30.3198 23.322 24.8298 23.022 20.6198 23.862C15.1498 24.952 9.19976 28.682 5.90976 33.132C0.879758 39.802 -1.12024 49.042 0.609758 57.522C2.20976 65.282 7.53976 72.412 14.4998 76.042C20.4398 79.122 20.5398 79.122 37.5998 79.262C52.0898 79.392 52.5698 79.362 53.5598 78.712C54.0998 78.312 54.8398 77.532 55.1498 76.922C55.7298 75.862 55.7598 73.422 55.7598 39.572C55.7598 -0.418 55.8998 2.012 53.6198 0.662C52.1598 -0.218 49.5098 -0.218 48.0498 0.662Z M10.0921 55.2066C11.5821 62.6766 17.3521 68.7066 24.4521 70.1666C28.1221 70.9166 32.2621 70.3766 35.9321 68.6366C38.6421 67.3566 42.1721 63.9266 43.6421 61.1166C47.1721 54.3966 46.8321 46.2866 42.7921 40.1166C41.0221 37.3666 38.9521 35.5366 35.9321 34.0766C32.9421 32.5866 30.2221 32.0766 26.7321 32.3166C23.2921 32.5466 20.5421 33.4966 17.6621 35.4666C13.9221 38.0066 11.1421 42.3566 10.0921 47.3366C9.44215 50.3266 9.44215 51.9566 10.0921 55.2066Z " /><path id="形状" fill-rule="evenodd" style="fill:#FFFFFF" transform="translate(140.65177607322914 23.475355342523283)  rotate(180 26.124623983966583 27.84167548907622)" opacity="1" d="M12.3 11.67C18.96 7.7 26.56 7.23 33.15 10.38C36.41 11.94 39.7 15.2 41.4 18.55C42.87 21.5 43.2 23.68 42.22 24.05C41.91 24.15 33.15 24.26 22.69 24.26C1.74 24.26 1.94 24.22 0.65 26.35C-0.5 28.26 -0.06 34.67 1.5 39.35C2.96 43.66 6.19 48.41 9.31 50.82C11.45 52.41 15.15 54.24 17.8 54.95C21.03 55.83 28.02 55.94 31.55 55.15C41.88 52.88 49.52 45.08 51.79 34.43C52.41 31.44 52.41 24.26 51.76 21.17C50.64 15.81 48.53 12.04 44.29 7.8C41.61 5.09 40.79 4.51 37.67 2.98C32.47 0.44 30.44 0 23.91 0C17.56 0 15.18 0.54 9.89 3.08C6.02 4.95 3.71 7.02 3.71 8.61C3.71 11.13 5.75 13.06 8.43 13.06C9.61 13.06 10.5 12.76 12.3 11.67Z M34.7791 44.9448C38.4191 42.8748 42.1191 37.6848 42.6291 33.9548C42.8291 32.6348 42.7591 32.4648 42.0491 32.2948C41.6091 32.1548 34.2691 32.0548 25.7491 32.0548C8.01908 32.0548 8.76908 31.9248 9.44908 34.6348C11.0491 40.9748 15.5891 45.7248 21.2991 46.9448C25.5091 47.8248 31.1791 46.9848 34.7791 44.9448Z " /><path id="路径" fill-rule="evenodd" style="fill:#FFFFFF" transform="translate(206.51324957450413 23.394901340352483)  rotate(180 25.979510866633163 27.797098432887392)" opacity="1" d="M42.45,2.55C41.81,3.87 41.77,4.68 41.77,19.37C41.77,36.03 41.67,37.25 39.94,39.96C37.19,44.3 30.73,47.18 24.99,46.64C22.18,46.37 19.22,45.49 17.25,44.34C15.42,43.29 12.87,40.57 11.92,38.74C10.22,35.41 10.09,34.06 9.95,17.98C9.78,1.42 9.85,1.97 7.71,0.68C6.39,-0.13 3.77,-0.21 2.38,0.51C1.8,0.81 1.05,1.63 0.68,2.37C0.04,3.63 0,4.34 0,18.42C0,34.5 0.2,36.98 1.9,41.22C4.58,47.86 9.4,52.31 16.47,54.65C18.78,55.43 19.26,55.43 33.79,55.53C48.05,55.67 48.77,55.63 49.79,54.99C52,53.63 51.96,54.14 51.96,27.71C51.96,5.05 51.92,3.83 51.31,2.47C50.5,0.74 49.17,0 46.87,0C44.62,0 43.3,0.78 42.45,2.55Z " /><path id="形状" fill-rule="evenodd" style="fill:#FFFFFF" transform="translate(298.61124807177714 23.38942968858695)  rotate(180 27.79487304687501 27.943536376953105)" opacity="1" d="M55.56 26.61C55.38 21.28 54.87 19.05 53.08 15.25C49.2 7 42.18 1.71 33.18 0.29C29.88 -0.26 22.65 0.02 19.83 0.76C16.8 1.58 11.95 4.09 9.67 6.02C4.51 10.39 1.25 16.33 0.33 23.11C-2.21 41.67 10.08 56.09 28.28 55.89C29.98 55.85 32.46 55.64 33.82 55.41C40.71 54.15 47.61 49.64 51.24 43.98C54.57 38.89 55.82 33.77 55.56 26.61Z M40.5393 41.8715C46.8293 35.4615 47.8793 24.2315 42.8893 16.7415C36.6693 7.34148 23.0193 6.02148 15.0393 13.9915C10.5593 18.4715 8.58929 26.2315 10.2793 32.8515C12.1193 40.0815 16.7393 44.8215 23.5593 46.5915C29.4693 48.0815 36.2993 46.2115 40.5393 41.8715Z " /><path id="路径" fill-rule="evenodd" style="fill:#FFFFFF" transform="translate(256.7646797001265 23.77083321165216)  rotate(180 14.425667837380589 39.4729786825995)" opacity="1" d="M12.47,15.86C14.82,12.47 17.94,10.71 22.63,10.09C24.26,9.88 26.06,9.51 26.57,9.24C29.69,7.68 29.59,2.12 26.4,0.46C25.51,-0.02 24.67,-0.09 21.88,0.09C11.76,0.59 3.71,7 0.86,16.78C0.18,19.05 0.18,20.16 0.04,46.86C-0.06,73.8 -0.02,74.64 0.62,76.1C1.44,77.94 2.59,78.75 4.66,78.91C5.89,79.02 6.6,78.85 7.62,78.27C10.3,76.71 10.16,78.44 10.16,48.49C10.16,18.84 10.13,19.25 12.47,15.86Z " /></g></svg>