<svg xmlns="http://www.w3.org/2000/svg" xmlns:xlink="http://www.w3.org/1999/xlink" width="1075" height="260" viewBox="0 0 1075 260" fill="none"><g opacity="1" transform="translate(0 0.000701904296875)  rotate(0 536.9999999999997 129.49999999999997)"><path id="形状" fill-rule="evenodd" style="fill:#242E42" transform="translate(933.4534142742298 0)  rotate(180 70.2732928628848 100.01220049027485)" opacity="1" d="M134.71 198.779C131.38 200.569 125.65 200.409 121.7 198.439C120.427 197.793 119.425 197.298 118.635 196.571C115.66 193.832 115.71 187.807 115.71 158.059C115.71 133.485 115.569 124.7 114.845 121.844C99.2943 138.441 74.1861 146.104 52.5787 140.62C35.1587 136.15 21.6087 126.58 12.1587 112.17C11.5726 111.267 11.0085 110.355 10.4663 109.435C1.60525 95.3105 -1.96689 77.3669 1.05 57.9093C5.43 29.7593 27.86 6.4993 55.6 1.1993C60.39 0.259296 70.41 -0.000704363 97.13 -0.000704363C130.61 -0.000704363 132.58 0.0792956 135.15 1.7193C135.965 2.20588 136.658 2.49854 137.246 2.93254C140.793 5.54894 140.55 13.3021 140.55 99.6493C140.55 189.199 140.55 190.819 138.83 194.159C137.89 196.039 136.09 198.079 134.71 198.779Z M105.348 102.378C112.717 93.2278 117.167 78.5178 116.137 66.7078C113.827 40.5378 95.0775 22.2378 70.7575 22.2378C58.1675 22.2378 47.9775 26.4278 38.9875 35.4078C22.2875 52.0878 19.7175 78.0878 32.6475 98.0178C39.1575 107.938 48.4875 114.528 60.4775 117.608C76.3175 121.628 94.8975 115.388 105.348 102.378Z " /><path id="形状" fill-rule="evenodd" style="fill:#242E42" transform="translate(0 58.96368107631827)  rotate(180 70.22459930055672 70.45580617507716)" opacity="1" d="M124.78 116.77C137.61 101.98 143.19 77.85 139.16 55.01C134.28 27.39 113.13 6.27 85.21 0.96C76.56 -0.66 57.64 -0.16 50.01 1.9C28.61 7.72 11.91 23.11 4.3 43.98C-2.3 61.94 -1.19 86.66 6.87 102.57C14.48 117.8 24.33 127.38 39.66 134.66C51.56 140.29 70.22 142.43 84.7 139.78C100.03 136.97 114.76 128.5 124.78 116.77Z M107.043 99.8311C124.093 74.7811 115.963 38.8511 90.523 26.8011C67.323 15.7611 40.423 24.6511 29.643 46.8911C25.273 55.7811 23.303 67.5111 24.673 76.4011C27.923 98.2112 40.343 113.011 59.093 117.451C77.593 121.821 96.953 114.631 107.043 99.8311Z " /><path id="形状" fill-rule="evenodd" style="fill:#242E42" transform="translate(180.7653092603323 58.98987818436542)  rotate(180 70.30432218884312 100.00506090781727)" opacity="1" d="M14.9 83.52C2.22 100.37 -2.83 123.65 1.55 145.03C5.57 164.61 19.01 182.57 36.56 191.73C51.55 199.51 51.8 199.51 94.8 199.85C131.36 200.19 132.55 200.11 135.04 198.47C136.4 197.45 138.29 195.49 139.06 193.95C140.52 191.29 140.61 185.13 140.61 99.77C140.61 -1.06 140.95 5.08 135.21 1.66C131.53 -0.56 124.85 -0.56 121.16 1.66C115.78 4.92 115.78 4.92 115.78 42.04C115.78 75.14 115.51 79.5 113.89 79.5C113.89 79.5 110.8 77.44 108.07 74.96C101.39 68.98 95.05 65.3 86.05 62.14C76.46 58.8 62.6 58.04 51.98 60.16C38.19 62.9 23.2 72.32 14.9 83.52Z M90.5923 173.069C97.4423 169.819 106.352 161.179 110.032 154.089C118.942 137.159 118.082 116.709 107.892 101.139C103.442 94.2095 98.2223 89.5895 90.5923 85.9195C83.0623 82.1595 76.2123 80.8695 67.3923 81.4695C58.7423 82.0695 51.8123 84.4595 44.5223 89.4295C35.1123 95.8395 28.0823 106.779 25.4323 119.359C23.8123 126.889 23.8123 130.999 25.4323 139.199C29.1923 158.019 43.7523 173.249 61.6523 176.929C70.9023 178.809 81.3423 177.439 90.5923 173.069Z " /><path id="形状" fill-rule="evenodd" style="fill:#242E42" transform="translate(354.65125568464543 59.19274169374529)  rotate(180 65.87283117832182 70.20234971952617)" opacity="1" d="M31.01 29.43C47.8 19.42 66.98 18.22 83.59 26.17C91.81 30.1 100.11 38.32 104.4 46.78C108.08 54.22 108.94 59.7 106.45 60.64C105.69 60.89 83.59 61.16 57.22 61.16C4.39 61.16 4.9 61.08 1.65 66.45C-1.26 71.26 -0.16 87.42 3.78 99.22C7.47 110.08 15.6 122.05 23.48 128.13C28.87 132.15 38.21 136.77 44.89 138.57C53.01 140.78 70.66 141.05 79.56 139.07C105.59 133.34 124.87 113.67 130.6 86.81C132.14 79.29 132.14 61.16 130.52 53.37C127.69 39.86 122.38 30.37 111.68 19.67C104.91 12.83 102.85 11.37 94.98 7.53C81.88 1.11 76.74 -7.10543e-15 60.3 -7.10543e-15C44.28 -7.10543e-15 38.29 1.36 24.93 7.78C15.18 12.48 9.35 17.71 9.35 21.72C9.35 28.05 14.49 32.92 21.25 32.92C24.24 32.92 26.47 32.17 31.01 29.43Z M87.7049 113.326C96.8649 108.116 106.195 95.0257 107.475 85.6157C107.995 82.2857 107.825 81.8557 106.025 81.4257C104.905 81.0857 86.4149 80.8257 64.9249 80.8257C20.2249 80.8257 22.1049 80.4857 23.8249 87.3257C27.8449 103.326 39.3149 115.296 53.7049 118.376C64.3249 120.596 78.6249 118.466 87.7049 113.326Z " /><path id="路径" fill-rule="evenodd" style="fill:#242E42" transform="translate(520.7199320325867 58.98987818436542)  rotate(180 65.50693072035811 70.08994936886259)" opacity="1" d="M30.05,97.68C25.77,89.29 25.43,85.87 25.09,45.33C24.66,3.59 24.83,4.96 19.44,1.71C16.1,-0.34 9.5,-0.52 6,1.29C4.53,2.05 2.66,4.11 1.72,5.99C0.09,9.15 0,10.95 0,46.44C0,86.98 0.51,93.23 4.8,103.93C11.56,120.68 23.71,131.9 41.53,137.8C47.35,139.76 48.55,139.76 85.2,140.01C121.16,140.36 122.97,140.28 125.54,138.65C131.11,135.23 131.01,136.51 131.01,69.88C131.01,12.74 130.92,9.66 129.39,6.24C127.33,1.88 123.99,0 118.17,0C112.51,0 109.17,1.96 107.04,6.42C105.41,9.76 105.32,11.8 105.32,48.84C105.32,90.84 105.07,93.92 100.7,100.76C93.77,111.71 77.49,118.97 63.02,117.61C55.92,116.92 48.46,114.7 43.5,111.79C38.87,109.14 32.45,102.3 30.05,97.68Z " /><path id="形状" fill-rule="evenodd" style="fill:#242E42" transform="translate(752.9435962122319 58.976081499933144)  rotate(180 70.08306531691251 70.45674294283354)" opacity="1" d="M85.28 139.72C102.66 136.55 120.04 125.17 129.21 110.88C137.59 98.06 140.75 85.14 140.08 67.09C139.65 53.66 138.36 48.02 133.83 38.44C124.06 17.66 106.34 4.31 83.65 0.72C75.34 -0.65 57.1 0.04 50 1.92C42.37 3.97 30.12 10.3 24.39 15.18C11.37 26.21 3.15 41.17 0.84 58.28C-5.58 105.07 25.41 141.42 71.32 140.91C75.59 140.83 81.84 140.31 85.28 139.72Z M102.226 105.592C118.076 89.4119 120.726 61.1019 108.136 42.2019C92.4662 18.5019 58.0462 15.1719 37.9162 35.2719C26.6162 46.5619 21.6462 66.1519 25.9262 82.8319C30.5562 101.052 42.1962 113.022 59.4062 117.472C74.3162 121.232 91.5262 116.532 102.226 105.592Z " /><path id="路径" fill-rule="evenodd" style="fill:#242E42" transform="translate(647.428127915748 59.93778452391203)  rotate(180 36.37409605089514 99.53049898288266)" opacity="1" d="M1.56,191.89C3.62,196.51 6.53,198.56 11.76,198.98C14.84,199.24 16.64,198.82 19.21,197.37C25.97,193.43 25.63,197.79 25.63,122.26C25.63,47.52 25.54,48.53 31.45,39.99C37.36,31.43 45.23,26.99 57.06,25.44C61.17,24.92 65.7,23.99 66.99,23.31C74.87,19.37 74.61,5.33 66.56,1.15C64.33,-0.04 62.19,-0.22 55.17,0.22C29.65,1.49 9.36,17.66 2.17,42.3C0.45,48.03 0.45,50.84 0.11,118.16C-0.15,186.08 -0.06,188.21 1.56,191.89Z " /></g></svg>